<svg viewBox="0 0 1000 1000" xmlns="http://www.w3.org/2000/svg"><path d="m126 875v-749h749v587l-3 3.3c-37.6 37.7-75.3 75.3-113 112.9-15.3 15.3-30.6 30.5-46 45.8zm493.1-460.4h27.1c7.8 0 10 2.1 10.1 10.1 0 13.3-.1 26.7-.1 40 0 7.8 2.7 10.8 10.4 10.8 28.2.1 56.3.1 84.5 0 9.7-.1 11.9-2.7 11.9-12.4 0-42.2.1-84.3.1-126.5 0-11.5-2.2-13.9-13.6-13.9-48.3-.1-96.7 0-145-.1-5.7 0-10.7 1.4-15 5.6-21.9 21.9-43.7 44-66 65.4-8.6 8.2-11.5 17.6-11.5 29 .1 86.3.1 172.6.1 259 0 2.3.1 4.7.2 7 .6 7.5.6 7.5 8.3 7.5 51.3 0 102.7-.1 154 .1 6.3 0 11.3-1.9 15.7-6.3 21.5-21.4 43.1-42.7 64.6-64.1 4.9-4.9 7.5-10.8 7.5-17.9.1-32.7.3-65.3.5-98 0-8.2-2.7-10.7-10.9-10.7-20 0-40 .1-60 .1-8.7 0-17.3-.2-26-.1-6.8 0-9.3 2.5-9.8 9.2-.1 1.8-.1 3.7-.1 5.5 0 31.3 0 62.7.1 94v5.4h-37.2c.1-66.1.1-131.9.1-198.7zm-380.2-90.3v5.1c0 87.3.1 174.6.1 261.9 0 12.8 3.8 24 12.5 33.3 19.8 21.1 39.9 42 59.9 63 6.1 6.4 13.2 9 22.3 9 49.2-.3 98.3-.2 147.5-.2 7.4 0 7.6-.2 7.7-7.9l1.2-202.9c.1-10-1.8-11.8-12-11.8-26.5-.1-53-.1-79.5-.3-14.1-.1-16.2 1.9-16.1 16 .2 33.2.2 66.3.3 99.5 0 4.9-.4 9.8-.6 14.6h-35.8v-168.5h5.6c40.5-.1 81-.1 121.5-.2 1.5 0 3 .1 4.5-.1 5.6-.7 10.5-3.9 10.5-7.5.2-19.1.1-38.3.1-57.9-2.2-.2-4.7-.5-7.1-.5-37.2-.2-74.3-.3-111.5-.6-4.7 0-9.3-.2-14-.8-6.5-.9-9.3-3.4-9.9-9.9-.8-7.6-.9-15.3-.9-22.9-.1-9.4-2.1-11.7-11.8-11.7h-83c-3.8.2-7.4.9-11.5 1.3z" fill="#f13204"/><path d="m713.1 875c15.3-15.3 30.7-30.5 46-45.8 37.7-37.6 75.3-75.3 113-112.9 1.1-1.1 2-2.2 3-3.3.3 0 .6 0 1-.1v163h-163c-.1-.2-.1-.5 0-.9z" fill="#fefefe"/><path d="m876 713c-.3 0-.6.1-1 .1v-354.2-232.8c.3.2.9.3 1 .5.1 1.3 0 2.7 0 4z" fill="#f45e3a"/><path d="m713.1 875c-.1.3-.1.6-.1 1h-582.5c-1.5 0-3-.6-4.5-1z" fill="#f46543"/><path d="m619.1 414.6v198.6h37.2v-5.4c0-31.3 0-62.7-.1-94 0-1.8-.1-3.7.1-5.5.5-6.7 3-9.2 9.8-9.2 8.7 0 17.3.1 26 .1 20 0 40-.1 60-.1 8.2 0 10.9 2.5 10.9 10.7-.1 32.7-.4 65.3-.5 98 0 7.1-2.6 13-7.5 17.9-21.5 21.4-43.1 42.7-64.6 64.1-4.4 4.3-9.4 6.3-15.7 6.3-51.3-.1-102.7-.1-154-.1-7.7 0-7.7 0-8.3-7.5-.2-2.3-.2-4.7-.2-7 0-86.3.1-172.6-.1-259 0-11.4 2.9-20.8 11.5-29 22.3-21.5 44.1-43.5 66-65.4 4.2-4.2 9.3-5.6 15-5.6 48.3 0 96.7 0 145 .1 11.4 0 13.6 2.5 13.6 13.9 0 42.2 0 84.3-.1 126.5 0 9.8-2.3 12.4-11.9 12.4-28.2.2-56.3.1-84.5 0-7.7 0-10.4-2.9-10.4-10.8 0-13.3.1-26.7.1-40 0-8-2.2-10.1-10.1-10.1-9.1.1-18.1.1-27.2.1zm-380.2-90.3c4.2-.4 7.8-1.1 11.4-1.1 27.7-.1 55.3-.1 83 0 9.7 0 11.7 2.2 11.8 11.7.1 7.6.2 15.3.9 22.9.7 6.5 3.4 9 9.9 9.9 4.6.6 9.3.8 14 .8l111.5.6c2.5 0 4.9.3 7.1.5 0 19.6.1 38.7-.1 57.9 0 3.7-4.9 6.9-10.5 7.5-1.5.2-3 .1-4.5.1-40.5.1-81 .1-121.5.2h-5.6v168.5h35.8c.2-4.8.7-9.7.6-14.6 0-33.2-.1-66.3-.3-99.5-.1-14.1 2-16.1 16.1-16 26.5.2 53 .2 79.5.3 10.2 0 12.1 1.8 12 11.8l-1.2 202.9c0 7.8-.3 7.9-7.7 7.9-49.2 0-98.3-.2-147.5.2-9 .1-16.2-2.6-22.3-9-20-21-40.1-41.9-59.9-63-8.7-9.3-12.5-20.5-12.5-33.3.1-87.3 0-174.6-.1-261.9.1-1.6.1-3.1.1-5.3z" fill="#fefdfd"/></svg>